<?xml version="1.0" encoding="UTF-8" standalone="no"?>
<!DOCTYPE svg PUBLIC "-//W3C//DTD SVG 1.1//EN" "http://www.w3.org/Graphics/SVG/1.1/DTD/svg11.dtd">
<svg width="100%" height="100%" viewBox="0 0 1378 381" version="1.1" xmlns="http://www.w3.org/2000/svg" xmlns:xlink="http://www.w3.org/1999/xlink" xml:space="preserve" xmlns:serif="http://www.serif.com/" style="fill-rule:evenodd;clip-rule:evenodd;stroke-linejoin:round;stroke-miterlimit:2;">
    <g id="Artboard1" transform="matrix(1.07995,0,0,0.92068,-21.4709,33.0904)">
        <rect x="19.881" y="-35.941" width="1275.83" height="413.559" style="fill:none;"/>
        <g transform="matrix(3.85819,0,0,4.52564,-34.5959,-32.4695)">
            <path d="M273.702,49.797L275.754,49.797C277.715,49.797 278.772,50.793 278.772,52.785C278.772,55.108 277.594,56.013 275.512,56.013L273.702,56.013L273.702,49.797ZM269.357,68.144L273.702,68.144L273.702,59.031L276.025,59.031C277.775,59.031 278.53,60.057 278.591,61.747L278.711,65.881C278.741,66.725 278.832,67.54 279.254,68.144L283.961,68.144L283.961,67.963C283.147,67.54 283.026,66.364 282.996,64.101C282.936,59.544 282.483,57.914 279.526,57.522L279.526,57.462C281.97,56.949 283.117,55.018 283.117,52.151C283.117,48.469 280.944,46.598 277.383,46.598L269.357,46.598L269.357,68.144Z" style="fill:rgb(144,150,152);fill-rule:nonzero;"/>
            <path d="M205.294,46.599L205.294,61.625C205.294,67.389 208.643,68.567 212.174,68.567C215.704,68.567 219.054,67.119 219.054,61.625L219.054,46.599L214.709,46.599L214.709,61.625C214.709,63.768 214.195,65.368 212.174,65.368C210.151,65.368 209.639,63.768 209.639,61.625L209.639,46.599L205.294,46.599Z" style="fill:rgb(144,150,152);fill-rule:nonzero;"/>
            <path d="M220.117,46.599L220.117,68.143L224.101,68.143L224.101,53.056L224.16,53.056L229.472,68.143L234.421,68.143L234.421,46.599L230.437,46.599L230.437,61.354L230.378,61.354L225.127,46.599L220.117,46.599Z" style="fill:rgb(144,150,152);fill-rule:nonzero;"/>
            <rect x="235.538" y="46.599" width="4.345" height="21.544" style="fill:rgb(144,150,152);fill-rule:nonzero;"/>
            <path d="M240.181,46.599L245.129,68.143L250.712,68.143L255.66,46.599L251.164,46.599L247.966,62.532L247.876,62.532L244.828,46.599L240.181,46.599Z" style="fill:rgb(144,150,152);fill-rule:nonzero;"/>
            <path d="M256.048,46.599L256.048,68.143L268.39,68.143L268.39,64.583L260.393,64.583L260.393,58.79L267.636,58.79L267.636,55.228L260.393,55.228L260.393,50.16L268.088,50.16L268.088,46.599L256.048,46.599Z" style="fill:rgb(144,150,152);fill-rule:nonzero;"/>
            <path d="M283.478,61.415L283.478,62.29C283.478,66.274 285.408,68.567 290.327,68.567C295.034,68.567 297.811,66.515 297.811,61.957C297.811,59.332 296.966,57.673 293.706,56.254L290.357,54.807C288.517,54.022 288.124,53.207 288.124,51.879C288.124,50.613 288.638,49.374 290.599,49.374C292.258,49.374 292.952,50.551 292.952,52.574L297.116,52.574L297.116,51.969C297.116,47.835 294.31,46.177 290.447,46.177C286.344,46.177 283.779,48.319 283.779,52.512C283.779,56.104 285.56,57.704 289.421,59.031C292.288,60.027 293.284,60.75 293.284,62.712C293.284,64.523 292.017,65.368 290.689,65.368C288.395,65.368 287.822,64.071 287.822,62.048L287.822,61.415L283.478,61.415Z" style="fill:rgb(144,150,152);fill-rule:nonzero;"/>
            <rect x="298.379" y="46.599" width="4.345" height="21.544" style="fill:rgb(144,150,152);fill-rule:nonzero;"/>
            <path d="M325.293,46.599L322.275,54.926L322.215,54.926L319.379,46.599L303.293,46.599L303.293,50.16L308,50.16L308,68.143L312.346,68.143L312.346,50.16L316.011,50.16L320.072,59.665L320.072,68.143L324.418,68.143L324.418,59.665L330.001,46.599L325.293,46.599Z" style="fill:rgb(144,150,152);fill-rule:nonzero;"/>
            <path d="M167.123,44.639L159.922,44.639L159.922,22.998L171.729,22.998C174.932,22.997 177.692,25.07 178.594,27.818C179.428,30.364 178.715,33.13 176.832,35.099C177.082,35.777 177.326,36.308 177.559,36.917C178.081,38.122 178.56,39.327 179.082,40.517L180.796,44.639L173.494,44.639C173.494,44.643 173.437,44.465 173.379,44.392C173.089,43.754 172.826,43.071 172.536,42.433L170.78,38.267C170.083,36.583 169.387,34.992 168.69,33.309C169.56,33.285 170.209,33.448 171.048,33.062C171.639,32.772 172.532,32.051 172.556,30.668C172.532,29.983 172.343,29.464 171.89,28.924C171.435,28.422 170.776,28.05 169.919,28.038C169.919,28.038 167.122,28.037 167.123,28.038L167.123,44.639Z" style="fill-rule:nonzero;"/>
            <path d="M242.328,22.998L242.328,44.639L235.128,44.639L235.128,35.814L230.087,35.814L230.087,44.639C228.781,44.639 227.373,44.624 226.067,44.639L222.887,44.639L222.887,28.005L217.852,28.005L217.852,44.639L210.651,44.639L210.651,28.005L205.572,28.005L205.572,44.639L198.155,44.639C196.863,41.519 195.499,38.369 194.236,35.263C194.091,34.609 193.946,33.956 193.757,33.317L193.757,44.639L186.325,44.639C184.853,41.213 183.437,37.856 181.968,34.38C181.459,33.177 181.042,32.197 180.516,30.945L180.444,30.781L179.3,28.096L177.662,24.261C177.519,23.826 177.286,23.433 177.14,22.998L184.555,22.998C186.079,26.699 187.617,30.356 189.214,33.999L189.258,34.086C189.2,33.665 189.068,33.128 188.996,32.723L188.996,26.264C189.01,25.232 188.996,24.057 188.996,22.998L196.427,22.998C196.521,23.233 196.573,23.361 196.645,23.55C197.516,25.596 198.344,27.627 199.215,29.66L201.16,34.086C201.116,33.622 201.014,33.172 200.956,32.723L200.956,22.998L230.087,22.998L230.087,30.807L235.128,30.807L235.128,22.998L242.328,22.998Z" style="fill-rule:nonzero;"/>
            <path d="M268.033,22.996L262.637,22.996L258.121,40.055L253.604,22.996L248.209,22.996L242.479,44.639L247.026,44.639L248.026,40.061L253.788,40.061L254.787,44.639L261.454,44.639L262.455,40.061L268.215,40.061L269.215,44.639L273.762,44.639L268.033,22.996ZM248.786,36.484L250.877,26.754L250.937,26.754L253.028,36.484L248.786,36.484ZM263.213,36.484L265.305,26.754L265.365,26.754L267.457,36.484L263.213,36.484Z" style="fill:rgb(144,150,152);fill-rule:nonzero;"/>
            <path d="M286.762,30.38C286.762,27.243 286.31,22.686 280.092,22.686C273.575,22.686 272.76,27.332 272.76,33.88C272.76,40.429 273.575,45.076 280.092,45.076C285.795,45.076 286.942,41.062 286.942,36.415L282.598,36.415C282.598,41.062 281.45,41.877 279.881,41.877C278.011,41.877 277.105,40.701 277.105,34.183C277.105,28.087 277.618,25.884 279.821,25.884C281.782,25.884 282.416,27.243 282.416,30.38L286.762,30.38Z" style="fill:rgb(144,150,152);fill-rule:nonzero;"/>
            <path d="M287.801,44.639L292.165,44.639L292.165,35.031L297.257,35.031L297.257,44.639L301.622,44.639L301.622,22.998L297.257,22.998L297.257,31.273L292.165,31.273L292.165,22.998L287.801,22.998L287.801,44.639Z" style="fill:rgb(144,150,152);fill-rule:nonzero;"/>
            <path d="M302.567,22.994L302.567,44.639L314.968,44.639L314.968,41.062L306.934,41.062L306.934,35.241L314.21,35.241L314.21,31.664L306.934,31.664L306.934,26.571L314.664,26.571L314.664,22.994L302.567,22.994Z" style="fill:rgb(144,150,152);fill-rule:nonzero;"/>
            <path d="M315.615,22.998L315.615,44.639L319.616,44.639L319.616,29.484L319.677,29.484L325.012,44.639L329.982,44.639L329.982,22.998L325.981,22.998L325.981,37.819L325.921,37.819L320.646,22.998L315.615,22.998Z" style="fill:rgb(144,150,152);fill-rule:nonzero;"/>
            <rect x="145.249" y="22.968" width="1" height="45.356" style="fill-rule:nonzero;"/>
            <path d="M85.505,63.593C85.505,63.333 85.487,63.055 85.45,62.758C85.413,62.461 85.322,62.185 85.175,61.928C85.028,61.671 84.807,61.46 84.51,61.293C84.213,61.126 83.808,61.043 83.295,61.043C82.755,61.043 82.325,61.135 82.005,61.318C81.685,61.501 81.44,61.756 81.27,62.083C81.1,62.411 80.99,62.801 80.94,63.258C80.89,63.715 80.865,64.213 80.865,64.753C80.865,65.293 80.89,65.791 80.94,66.248C80.99,66.706 81.1,67.096 81.27,67.423C81.44,67.75 81.685,68.005 82.005,68.188C82.325,68.372 82.755,68.463 83.295,68.463C83.768,68.463 84.153,68.386 84.45,68.233C84.747,68.081 84.977,67.872 85.14,67.608C85.303,67.345 85.415,67.04 85.475,66.693C85.535,66.346 85.565,65.98 85.565,65.593L84.125,65.593C84.125,65.98 84.102,66.291 84.055,66.528C84.008,66.765 83.945,66.949 83.865,67.079C83.785,67.208 83.69,67.295 83.58,67.338C83.47,67.381 83.352,67.403 83.225,67.403C83.072,67.403 82.937,67.372 82.82,67.308C82.703,67.246 82.607,67.122 82.53,66.938C82.453,66.755 82.397,66.497 82.36,66.164C82.323,65.831 82.305,65.393 82.305,64.853C82.305,64.346 82.318,63.918 82.345,63.568C82.372,63.218 82.418,62.935 82.485,62.718C82.552,62.501 82.643,62.345 82.76,62.248C82.877,62.151 83.025,62.103 83.205,62.103C83.532,62.103 83.757,62.221 83.88,62.458C84.003,62.695 84.065,63.074 84.065,63.593L85.505,63.593ZM86.355,66.873C86.421,67.226 86.535,67.523 86.695,67.763C86.855,68.003 87.071,68.181 87.345,68.298C87.618,68.415 87.961,68.47 88.375,68.463C88.768,68.463 89.1,68.401 89.37,68.278C89.64,68.156 89.858,67.975 90.025,67.739C90.191,67.501 90.311,67.207 90.385,66.853C90.458,66.5 90.495,66.093 90.495,65.633C90.495,65.166 90.461,64.755 90.395,64.398C90.328,64.041 90.215,63.744 90.055,63.503C89.895,63.263 89.678,63.085 89.405,62.968C89.131,62.851 88.788,62.796 88.375,62.803C87.981,62.803 87.65,62.866 87.38,62.989C87.11,63.111 86.891,63.291 86.725,63.528C86.558,63.765 86.438,64.06 86.365,64.414C86.291,64.766 86.255,65.173 86.255,65.633C86.255,66.106 86.288,66.52 86.355,66.873ZM87.655,64.873C87.668,64.64 87.7,64.44 87.75,64.273C87.8,64.106 87.873,63.976 87.97,63.883C88.066,63.79 88.201,63.744 88.375,63.744C88.655,63.744 88.848,63.89 88.955,64.183C89.061,64.476 89.115,64.96 89.115,65.633C89.115,66.306 89.061,66.79 88.955,67.083C88.848,67.376 88.655,67.523 88.375,67.523C88.201,67.523 88.066,67.476 87.97,67.383C87.873,67.29 87.8,67.161 87.75,66.994C87.7,66.827 87.668,66.626 87.655,66.393C87.641,66.161 87.635,65.907 87.635,65.633C87.635,65.36 87.641,65.106 87.655,64.873ZM91.298,68.324L92.678,68.324L92.678,64.784C92.678,64.463 92.743,64.23 92.873,64.083C93.003,63.936 93.178,63.864 93.398,63.864C93.591,63.864 93.729,63.923 93.813,64.043C93.896,64.164 93.938,64.336 93.938,64.563L93.938,68.324L95.318,68.324L95.318,64.784C95.318,64.463 95.383,64.23 95.513,64.083C95.643,63.936 95.818,63.864 96.038,63.864C96.231,63.864 96.369,63.923 96.453,64.043C96.536,64.164 96.578,64.336 96.578,64.563L96.578,68.324L97.958,68.324L97.958,64.414C97.958,63.893 97.849,63.496 97.633,63.218C97.416,62.941 97.078,62.803 96.618,62.803C96.291,62.803 96.009,62.875 95.773,63.018C95.536,63.162 95.364,63.376 95.258,63.664L95.238,63.664C95.164,63.383 95.019,63.17 94.803,63.023C94.586,62.876 94.318,62.803 93.998,62.803C93.698,62.803 93.439,62.856 93.223,62.963C93.006,63.07 92.811,63.247 92.638,63.494L92.618,63.494L92.618,62.943L91.298,62.943L91.298,68.324ZM98.93,70.083L100.311,70.083L100.311,67.824L100.331,67.824C100.477,68.037 100.642,68.196 100.825,68.303C101.008,68.411 101.23,68.463 101.49,68.463C102.057,68.463 102.474,68.242 102.74,67.798C103.006,67.355 103.141,66.633 103.141,65.633C103.141,64.633 103.006,63.912 102.74,63.468C102.474,63.025 102.057,62.803 101.49,62.803C101.21,62.803 100.976,62.858 100.785,62.968C100.595,63.079 100.423,63.26 100.271,63.513L100.25,63.513L100.25,62.943L98.93,62.943L98.93,70.083ZM100.445,64.308C100.535,64.011 100.733,63.864 101.041,63.864C101.34,63.864 101.535,64.011 101.625,64.308C101.715,64.605 101.76,65.046 101.76,65.633C101.76,66.22 101.715,66.662 101.625,66.958C101.535,67.255 101.34,67.403 101.041,67.403C100.733,67.403 100.535,67.255 100.445,66.958C100.355,66.662 100.311,66.22 100.311,65.633C100.311,65.046 100.355,64.605 100.445,64.308ZM106.748,68.324L108.067,68.324L108.067,62.943L106.688,62.943L106.688,66.513C106.688,67.106 106.443,67.403 105.958,67.403C105.75,67.403 105.601,67.348 105.507,67.239C105.414,67.128 105.367,66.933 105.367,66.653L105.367,62.943L103.987,62.943L103.987,66.933C103.987,67.473 104.105,67.864 104.342,68.103C104.579,68.343 104.917,68.463 105.357,68.463C105.657,68.463 105.923,68.401 106.157,68.278C106.391,68.156 106.581,67.96 106.728,67.693L106.748,67.693L106.748,68.324ZM109.381,62.943L108.682,62.943L108.682,63.883L109.381,63.883L109.381,66.963C109.381,67.236 109.397,67.463 109.432,67.643C109.464,67.824 109.526,67.968 109.616,68.079C109.707,68.188 109.834,68.266 110.001,68.313C110.167,68.36 110.387,68.383 110.662,68.383C110.821,68.383 110.972,68.376 111.116,68.364C111.259,68.35 111.407,68.336 111.562,68.324L111.562,67.364C111.514,67.371 111.464,67.375 111.412,67.378C111.357,67.381 111.304,67.383 111.251,67.383C111.051,67.383 110.919,67.338 110.856,67.248C110.792,67.159 110.761,67.006 110.761,66.793L110.761,63.883L111.562,63.883L111.562,62.943L110.761,62.943L110.761,61.403L109.381,61.403L109.381,62.943ZM113.458,64.593L113.458,64.443C113.458,64.23 113.51,64.06 113.617,63.933C113.724,63.806 113.883,63.744 114.097,63.744C114.331,63.744 114.496,63.801 114.592,63.918C114.688,64.036 114.737,64.196 114.737,64.403C114.737,64.583 114.697,64.72 114.617,64.813C114.538,64.907 114.394,64.98 114.188,65.034L113.407,65.244C113.167,65.31 112.962,65.386 112.792,65.473C112.623,65.56 112.482,65.668 112.373,65.798C112.262,65.928 112.18,66.085 112.127,66.268C112.073,66.452 112.047,66.67 112.047,66.923C112.047,67.103 112.07,67.286 112.117,67.468C112.164,67.651 112.237,67.816 112.337,67.963C112.438,68.11 112.57,68.23 112.737,68.324C112.903,68.416 113.107,68.463 113.347,68.463C113.68,68.463 113.953,68.416 114.163,68.324C114.373,68.23 114.558,68.043 114.717,67.763L114.737,67.763C114.757,67.856 114.778,67.952 114.802,68.048C114.825,68.145 114.86,68.236 114.907,68.324L116.228,68.324C116.16,68.164 116.115,68.013 116.092,67.873C116.068,67.733 116.058,67.537 116.058,67.284L116.058,64.454C116.058,64.213 116.032,63.992 115.982,63.789C115.933,63.585 115.837,63.411 115.697,63.263C115.558,63.117 115.358,63.003 115.103,62.923C114.845,62.843 114.513,62.803 114.107,62.803C113.847,62.803 113.603,62.832 113.373,62.888C113.143,62.945 112.942,63.039 112.772,63.168C112.603,63.298 112.467,63.47 112.367,63.683C112.268,63.896 112.217,64.157 112.217,64.463L112.217,64.593L113.458,64.593ZM114.737,66.693C114.737,66.846 114.71,66.975 114.657,67.079C114.604,67.181 114.535,67.266 114.453,67.333C114.368,67.4 114.277,67.449 114.177,67.478C114.078,67.508 113.98,67.523 113.887,67.523C113.7,67.523 113.567,67.451 113.487,67.303C113.407,67.157 113.367,66.98 113.367,66.773C113.367,66.534 113.427,66.343 113.547,66.204C113.667,66.063 113.867,65.963 114.147,65.903C114.233,65.883 114.331,65.851 114.438,65.808C114.543,65.765 114.644,65.707 114.737,65.633L114.737,66.693ZM117.388,62.943L116.688,62.943L116.688,63.883L117.388,63.883L117.388,66.963C117.388,67.236 117.404,67.463 117.438,67.643C117.471,67.824 117.533,67.968 117.624,68.079C117.713,68.188 117.841,68.266 118.008,68.313C118.174,68.36 118.395,68.383 118.668,68.383C118.829,68.383 118.979,68.376 119.124,68.364C119.267,68.35 119.415,68.336 119.568,68.324L119.568,67.364C119.521,67.371 119.471,67.375 119.418,67.378C119.364,67.381 119.312,67.383 119.258,67.383C119.059,67.383 118.926,67.338 118.863,67.248C118.799,67.159 118.769,67.006 118.769,66.793L118.769,63.883L119.568,63.883L119.568,62.943L118.769,62.943L118.769,61.403L117.388,61.403L117.388,62.943ZM120.226,62.284L121.605,62.284L121.605,61.103L120.226,61.103L120.226,62.284ZM120.226,68.324L121.605,68.324L121.605,62.943L120.226,62.943L120.226,68.324ZM122.552,66.873C122.62,67.226 122.732,67.523 122.893,67.763C123.052,68.003 123.27,68.181 123.542,68.298C123.816,68.415 124.159,68.47 124.572,68.463C124.966,68.463 125.297,68.401 125.567,68.278C125.837,68.156 126.057,67.975 126.222,67.739C126.389,67.501 126.509,67.207 126.583,66.853C126.656,66.5 126.692,66.093 126.692,65.633C126.692,65.166 126.659,64.755 126.592,64.398C126.526,64.041 126.413,63.744 126.252,63.503C126.092,63.263 125.876,63.085 125.603,62.968C125.33,62.851 124.986,62.796 124.572,62.803C124.179,62.803 123.847,62.866 123.578,62.989C123.308,63.111 123.089,63.291 122.922,63.528C122.756,63.765 122.636,64.06 122.563,64.414C122.489,64.766 122.453,65.173 122.453,65.633C122.453,66.106 122.486,66.52 122.552,66.873ZM123.853,64.873C123.866,64.64 123.897,64.44 123.947,64.273C123.998,64.106 124.071,63.976 124.167,63.883C124.264,63.79 124.399,63.744 124.572,63.744C124.853,63.744 125.046,63.89 125.152,64.183C125.259,64.476 125.313,64.96 125.313,65.633C125.313,66.306 125.259,66.79 125.152,67.083C125.046,67.376 124.853,67.523 124.572,67.523C124.399,67.523 124.264,67.476 124.167,67.383C124.071,67.29 123.998,67.161 123.947,66.994C123.897,66.827 123.866,66.626 123.853,66.393C123.839,66.161 123.833,65.907 123.833,65.633C123.833,65.36 123.839,65.106 123.853,64.873ZM127.496,68.324L128.875,68.324L128.875,64.753C128.875,64.161 129.119,63.864 129.604,63.864C129.813,63.864 129.962,63.918 130.054,64.028C130.149,64.138 130.195,64.333 130.195,64.614L130.195,68.324L131.575,68.324L131.575,64.333C131.575,63.793 131.458,63.403 131.22,63.164C130.983,62.923 130.646,62.803 130.205,62.803C129.905,62.803 129.639,62.866 129.405,62.989C129.172,63.111 128.981,63.306 128.835,63.574L128.815,63.574L128.815,62.943L127.496,62.943L127.496,68.324Z" style="fill-rule:nonzero;"/>
            <path d="M82.525,50.905L83.135,50.905C83.408,50.905 83.627,50.957 83.79,51.06C83.953,51.163 84.077,51.318 84.16,51.525C84.243,51.732 84.298,51.987 84.325,52.29C84.352,52.593 84.365,52.948 84.365,53.355C84.365,53.841 84.35,54.248 84.32,54.575C84.29,54.902 84.23,55.165 84.14,55.365C84.05,55.565 83.927,55.707 83.77,55.794C83.613,55.881 83.412,55.924 83.165,55.924L82.525,55.924L82.525,50.905ZM81.085,56.985L83.355,56.985C83.835,56.985 84.232,56.912 84.545,56.765C84.858,56.618 85.108,56.395 85.295,56.095C85.482,55.794 85.613,55.415 85.69,54.955C85.767,54.495 85.805,53.948 85.805,53.315C85.805,52.788 85.775,52.312 85.715,51.885C85.655,51.457 85.54,51.093 85.37,50.79C85.2,50.487 84.962,50.252 84.655,50.089C84.348,49.927 83.945,49.845 83.445,49.845L81.085,49.845L81.085,56.985ZM90.662,54.504L90.662,54.195C90.662,53.782 90.635,53.407 90.582,53.07C90.528,52.733 90.428,52.447 90.282,52.209C90.135,51.973 89.933,51.79 89.677,51.66C89.42,51.53 89.092,51.464 88.692,51.464C88.225,51.464 87.852,51.541 87.572,51.695C87.292,51.848 87.077,52.055 86.927,52.315C86.777,52.575 86.677,52.872 86.627,53.205C86.577,53.538 86.552,53.885 86.552,54.245C86.552,54.578 86.567,54.916 86.597,55.26C86.627,55.603 86.708,55.913 86.842,56.19C86.975,56.466 87.182,56.692 87.462,56.865C87.742,57.038 88.132,57.124 88.632,57.124C89.292,57.124 89.775,56.957 90.082,56.62C90.388,56.283 90.555,55.802 90.582,55.174L89.342,55.174C89.302,55.515 89.228,55.768 89.122,55.935C89.015,56.102 88.845,56.185 88.612,56.185C88.485,56.185 88.378,56.15 88.292,56.08C88.205,56.01 88.135,55.916 88.082,55.799C88.028,55.683 87.99,55.549 87.967,55.4C87.943,55.249 87.932,55.095 87.932,54.935L87.932,54.504L90.662,54.504ZM87.932,53.685L87.932,53.475C87.932,53.348 87.943,53.222 87.967,53.095C87.99,52.968 88.028,52.853 88.082,52.749C88.135,52.647 88.207,52.563 88.297,52.499C88.387,52.437 88.502,52.405 88.642,52.405C88.782,52.405 88.897,52.433 88.987,52.49C89.077,52.546 89.147,52.629 89.197,52.74C89.247,52.85 89.282,52.983 89.302,53.14C89.322,53.296 89.335,53.478 89.342,53.685L87.932,53.685ZM91.238,55.225L91.238,55.415C91.238,55.674 91.268,55.91 91.328,56.12C91.388,56.33 91.493,56.51 91.643,56.66C91.793,56.81 91.994,56.924 92.248,57.004C92.501,57.084 92.824,57.124 93.218,57.124C93.504,57.124 93.771,57.089 94.018,57.02C94.264,56.95 94.476,56.845 94.653,56.705C94.829,56.565 94.968,56.388 95.068,56.174C95.168,55.961 95.218,55.714 95.218,55.435C95.218,55.028 95.128,54.707 94.948,54.47C94.768,54.233 94.461,54.041 94.028,53.895L93.198,53.615C92.964,53.541 92.806,53.452 92.723,53.345C92.639,53.238 92.598,53.118 92.598,52.985C92.598,52.791 92.663,52.647 92.793,52.549C92.923,52.453 93.074,52.405 93.248,52.405C93.474,52.405 93.633,52.47 93.723,52.6C93.813,52.73 93.858,52.935 93.858,53.214L95.098,53.214L95.098,52.995C95.098,52.507 94.948,52.131 94.648,51.865C94.348,51.598 93.884,51.464 93.258,51.464C92.904,51.464 92.603,51.507 92.353,51.595C92.103,51.682 91.898,51.797 91.738,51.945C91.578,52.091 91.461,52.263 91.388,52.459C91.314,52.657 91.278,52.865 91.278,53.084C91.278,53.464 91.374,53.777 91.568,54.02C91.761,54.263 92.048,54.452 92.428,54.584L93.398,54.935C93.531,54.988 93.648,55.06 93.748,55.15C93.848,55.24 93.898,55.372 93.898,55.544C93.898,55.757 93.834,55.917 93.708,56.025C93.581,56.131 93.411,56.185 93.198,56.185C92.964,56.185 92.786,56.113 92.663,55.97C92.539,55.827 92.478,55.638 92.478,55.405L92.478,55.225L91.238,55.225ZM96.004,50.945L97.384,50.945L97.384,49.765L96.004,49.765L96.004,50.945ZM96.004,56.985L97.384,56.985L97.384,51.605L96.004,51.605L96.004,56.985ZM99.683,53.549C99.699,53.299 99.734,53.1 99.788,52.95C99.841,52.799 99.914,52.692 100.008,52.624C100.102,52.558 100.225,52.525 100.378,52.525C100.651,52.525 100.839,52.662 100.943,52.935C101.046,53.207 101.099,53.671 101.099,54.325C101.099,54.552 101.086,54.76 101.063,54.95C101.04,55.14 101,55.302 100.943,55.435C100.886,55.568 100.81,55.672 100.713,55.749C100.616,55.827 100.495,55.865 100.349,55.865C100.201,55.865 100.083,55.827 99.993,55.749C99.903,55.672 99.833,55.57 99.783,55.44C99.733,55.31 99.699,55.162 99.683,54.995C99.666,54.828 99.658,54.652 99.658,54.464C99.658,54.105 99.666,53.799 99.683,53.549ZM101.099,51.605L101.099,52.205L101.079,52.205C100.944,51.924 100.774,51.732 100.568,51.624C100.361,51.518 100.162,51.464 99.968,51.464C99.594,51.464 99.296,51.547 99.073,51.714C98.849,51.881 98.679,52.097 98.563,52.36C98.446,52.623 98.369,52.917 98.333,53.245C98.296,53.572 98.278,53.892 98.278,54.205C98.278,55.185 98.416,55.882 98.693,56.299C98.969,56.716 99.381,56.924 99.928,56.924C100.148,56.924 100.359,56.865 100.563,56.745C100.767,56.624 100.938,56.464 101.079,56.265L101.099,56.265L101.099,56.975C101.099,57.254 101.042,57.487 100.928,57.669C100.814,57.853 100.618,57.945 100.338,57.945C100.251,57.945 100.169,57.932 100.093,57.905C100.017,57.877 99.944,57.841 99.878,57.794C99.738,57.695 99.668,57.558 99.668,57.385L98.348,57.385C98.348,57.845 98.506,58.2 98.823,58.45C99.139,58.7 99.591,58.825 100.178,58.825C100.984,58.825 101.56,58.653 101.903,58.31C102.247,57.966 102.418,57.435 102.418,56.714L102.418,51.605L101.099,51.605ZM103.422,56.985L104.802,56.985L104.802,53.415C104.802,52.822 105.045,52.525 105.532,52.525C105.738,52.525 105.888,52.58 105.982,52.69C106.075,52.799 106.123,52.995 106.123,53.275L106.123,56.985L107.502,56.985L107.502,52.995C107.502,52.455 107.383,52.065 107.147,51.825C106.91,51.584 106.572,51.464 106.132,51.464C105.833,51.464 105.565,51.527 105.333,51.65C105.099,51.773 104.908,51.968 104.762,52.235L104.742,52.235L104.742,51.605L103.422,51.605L103.422,56.985Z" style="fill-rule:nonzero;"/>
            <path d="M73.78,68.34L73.78,54.994L69.153,54.994C68.763,52.368 67.633,50.374 65.762,49.012C63.889,47.652 61.518,46.97 58.65,46.97C56.462,46.97 54.601,47.408 53.07,48.283C51.538,49.158 50.286,50.325 49.313,51.785C48.34,53.244 47.635,54.897 47.198,56.745C46.76,58.593 46.542,60.49 46.542,62.434C46.542,64.38 46.76,66.276 47.198,68.123C47.635,69.972 48.34,71.624 49.313,73.083C50.286,74.542 51.538,75.709 53.07,76.584C54.601,77.46 56.462,77.898 58.65,77.898C61.859,77.898 64.35,77.047 66.126,75.344C67.901,73.643 68.91,71.356 69.153,68.34L73.78,68.34ZM67.366,36.613C69.698,37.343 71.836,38.353 73.78,39.641L73.78,11.671L36.427,11.671L36.427,34.777C36.915,34.53 37.447,34.348 38.025,34.231C38.731,34.088 39.452,34.017 40.192,34.017C40.846,34.017 41.509,34.063 42.181,34.155C42.852,34.248 43.465,34.429 44.019,34.697C44.572,34.965 45.025,35.343 45.378,35.83C45.731,36.317 45.907,36.947 45.907,37.719L45.907,38.567C45.907,38.567 45.922,38.561 45.911,38.566C46.086,38.475 47.342,37.801 48.219,37.415C51.428,36.005 55.003,35.3 58.941,35.3C61.761,35.3 64.569,35.737 67.366,36.613ZM34.798,73.047C33.936,70.722 33.381,68.267 33.129,65.685C33.13,65.693 33.131,65.7 33.131,65.707C32.49,66.16 31.786,66.507 31.022,66.748C29.786,67.136 28.526,67.331 27.238,67.331C26.245,67.331 25.318,67.204 24.459,66.95C23.6,66.695 22.849,66.312 22.205,65.802C21.561,65.291 21.058,64.648 20.696,63.87C20.333,63.091 20.152,62.165 20.152,61.091C20.152,59.911 20.353,58.938 20.756,58.173C21.159,57.408 21.695,56.797 22.366,56.341C23.036,55.885 23.795,55.541 24.641,55.314C25.486,55.085 26.352,54.906 27.238,54.771C28.123,54.637 28.968,54.53 29.774,54.449C30.578,54.369 31.296,54.248 31.927,54.085C32.558,53.925 33.061,53.691 33.437,53.382C33.813,53.074 34,52.623 34,52.034C34,51.415 33.9,50.926 33.699,50.564C33.497,50.202 33.229,49.918 32.894,49.718C32.558,49.517 32.169,49.383 31.726,49.316C31.284,49.248 30.806,49.215 30.297,49.215C29.196,49.215 28.318,49.456 27.659,49.94C27.002,50.423 26.62,51.228 26.513,52.356L20.796,52.356C20.861,51.276 21.091,50.344 21.486,49.56C21.484,49.563 21.482,49.566 21.481,49.569C21.368,49.572 21.254,49.574 21.139,49.574C19.093,49.574 17.318,49.175 15.81,48.377C15.225,48.069 14.68,47.718 14.173,47.328L14.173,79.662L38.361,79.662C36.886,77.684 35.698,75.479 34.798,73.047ZM31.988,62.944C32.383,62.703 32.712,62.432 32.975,62.13L32.975,62.24C32.985,60.418 33.135,58.656 33.427,56.953C33.322,57.001 33.212,57.047 33.095,57.084C32.733,57.206 32.343,57.307 31.927,57.388C31.511,57.468 31.068,57.536 30.599,57.589C30.129,57.643 29.679,57.708 29.25,57.79C28.793,57.87 28.365,57.979 27.962,58.113C27.559,58.248 27.203,58.428 26.895,58.656C26.586,58.884 26.338,59.179 26.151,59.54C25.962,59.904 25.869,60.34 25.869,60.85C25.869,61.387 25.962,61.824 26.151,62.159C26.338,62.495 26.593,62.762 26.915,62.962C27.238,63.164 27.613,63.306 28.042,63.386C28.471,63.467 28.914,63.507 29.37,63.507C30.498,63.507 31.37,63.32 31.988,62.944ZM28.992,38.55C29.2,37.51 29.303,36.436 29.303,35.326C29.303,34.252 29.2,33.194 28.992,32.154C28.784,31.114 28.428,30.204 27.926,29.424C27.423,28.644 26.764,28.012 25.95,27.526C25.135,27.041 24.139,26.798 22.96,26.798C21.746,26.798 20.723,27.041 19.892,27.526C19.06,28.012 18.391,28.653 17.889,29.45C17.387,30.248 17.023,31.158 16.798,32.18C16.572,33.203 16.46,34.269 16.46,35.378C16.46,36.418 16.581,37.458 16.824,38.498C17.066,39.538 17.456,40.466 17.994,41.28C18.531,42.095 19.207,42.754 20.022,43.256C20.836,43.759 21.816,44.01 22.96,44.01C24.173,44.01 25.187,43.768 26.002,43.282C26.816,42.797 27.466,42.147 27.952,41.332C28.437,40.518 28.784,39.59 28.992,38.55ZM28.94,25.238L29.044,25.238L29.044,11.671L14.173,11.671L14.173,23.418C14.673,23.043 15.209,22.705 15.784,22.404C17.274,21.624 19.008,21.234 20.984,21.234C22.578,21.234 24.094,21.572 25.534,22.248C26.972,22.924 28.108,23.921 28.94,25.238ZM41.979,39.015C42.214,38.823 42.331,38.541 42.331,38.172C42.331,37.786 42.269,37.479 42.143,37.253C42.017,37.026 41.849,36.85 41.639,36.724C41.429,36.598 41.186,36.514 40.909,36.472C40.632,36.43 40.333,36.409 40.015,36.409C39.326,36.409 38.776,36.56 38.365,36.862C37.954,37.165 37.715,37.668 37.648,38.373L36.427,38.373L36.427,40.239C36.444,40.234 36.46,40.229 36.477,40.224C37.006,40.081 37.547,39.968 38.101,39.884C38.655,39.8 39.184,39.733 39.688,39.683C40.192,39.632 40.64,39.557 41.034,39.456C41.429,39.355 41.743,39.208 41.979,39.015ZM38.306,45.281C38.837,44.562 39.406,43.873 40.013,43.214C40.691,42.478 41.411,41.789 42.174,41.147C42.185,41.138 42.195,41.129 42.206,41.12C42.387,40.969 42.238,41.092 42.231,41.097C42.228,41.1 42.225,41.102 42.221,41.104C42.092,41.198 41.939,41.274 41.765,41.332C41.538,41.408 41.295,41.471 41.034,41.521C40.775,41.571 40.497,41.613 40.204,41.647C39.91,41.681 39.628,41.722 39.36,41.773C39.074,41.823 38.806,41.89 38.555,41.974C38.303,42.059 38.08,42.172 37.887,42.315C37.694,42.457 37.538,42.641 37.421,42.868C37.304,43.095 37.245,43.368 37.245,43.686C37.245,44.022 37.304,44.295 37.421,44.505C37.538,44.715 37.698,44.883 37.9,45.009C38.036,45.094 38.189,45.162 38.356,45.212C38.339,45.235 38.323,45.258 38.306,45.281Z" style="fill-rule:nonzero;"/>
            <path d="M29.303,35.326C29.303,36.436 29.2,37.51 28.992,38.55C28.784,39.589 28.437,40.518 27.952,41.332C27.465,42.146 26.815,42.796 26.002,43.282C25.187,43.768 24.172,44.01 22.96,44.01C21.815,44.01 20.835,43.759 20.022,43.255C19.207,42.753 18.53,42.095 17.994,41.28C17.456,40.466 17.065,39.538 16.824,38.498C16.581,37.457 16.46,36.417 16.46,35.378C16.46,34.269 16.571,33.203 16.797,32.18C17.022,31.158 17.387,30.248 17.889,29.45C18.391,28.653 19.06,28.012 19.892,27.525C20.723,27.04 21.746,26.797 22.96,26.797C24.138,26.797 25.134,27.04 25.95,27.525C26.764,28.012 27.422,28.644 27.925,29.424C28.428,30.204 28.784,31.114 28.992,32.154C29.2,33.193 29.303,34.251 29.303,35.326ZM35.054,40.867C35.46,40.589 35.918,40.38 36.426,40.239L36.426,38.373L34.071,38.373C34.122,37.535 34.332,36.837 34.701,36.284C35.069,35.728 35.541,35.285 36.11,34.949C36.214,34.888 36.319,34.831 36.426,34.776L36.426,11.67L29.043,11.67L29.043,25.238L28.939,25.238C28.107,23.92 26.972,22.924 25.534,22.248C24.095,21.572 22.578,21.233 20.983,21.233C19.007,21.233 17.273,21.623 15.784,22.404C15.209,22.705 14.672,23.042 14.172,23.417L14.172,47.329C14.68,47.718 15.225,48.069 15.81,48.377C17.317,49.174 19.092,49.574 21.139,49.574C21.253,49.574 21.368,49.573 21.481,49.57C21.579,49.375 21.685,49.19 21.801,49.013C22.393,48.127 23.144,47.417 24.057,46.88C24.97,46.344 25.99,45.96 27.117,45.732C28.244,45.504 29.397,45.391 30.579,45.391C31.626,45.391 32.685,45.464 33.759,45.612C33.856,45.625 33.952,45.64 34.047,45.656C34.035,45.629 34.022,45.603 34.008,45.576C33.782,45.088 33.668,44.51 33.668,43.837C33.668,43.1 33.794,42.491 34.046,42.013C34.298,41.534 34.633,41.151 35.054,40.867ZM47.198,68.123C46.761,66.276 46.542,64.379 46.542,62.435C46.542,60.49 46.761,58.593 47.198,56.745C47.634,54.897 48.339,53.244 49.313,51.785C50.286,50.326 51.538,49.159 53.069,48.283C54.602,47.408 56.461,46.971 58.649,46.971C61.518,46.971 63.889,47.652 65.762,49.012C67.632,50.374 68.764,52.368 69.152,54.994L73.779,54.994L73.779,39.642C71.835,38.353 69.699,37.343 67.366,36.613C64.568,35.737 61.762,35.3 58.94,35.3C55.002,35.3 51.428,36.004 48.22,37.415C45.009,38.826 42.273,40.759 40.013,43.213C37.751,45.669 36.012,48.539 34.797,51.821C33.582,55.103 32.974,58.641 32.974,62.435C32.974,66.228 33.582,69.765 34.797,73.047C35.698,75.48 36.886,77.683 38.36,79.662L73.779,79.662L73.779,68.339L69.152,68.339C68.91,71.356 67.9,73.644 66.126,75.344C64.35,77.047 61.858,77.898 58.649,77.898C56.461,77.898 54.602,77.46 53.069,76.584C51.538,75.709 50.286,74.542 49.313,73.083C48.339,71.624 47.634,69.972 47.198,68.123Z" style="fill:white;fill-rule:nonzero;"/>
            <path d="M45.377,35.83C45.024,35.343 44.571,34.965 44.019,34.697C43.464,34.429 42.852,34.248 42.181,34.155C41.508,34.063 40.846,34.017 40.191,34.017C39.452,34.017 38.731,34.088 38.024,34.231C37.319,34.374 36.683,34.613 36.11,34.949C35.541,35.285 35.069,35.729 34.701,36.283C34.332,36.837 34.122,37.534 34.071,38.373L37.647,38.373C37.714,37.668 37.954,37.165 38.365,36.862C38.775,36.56 39.326,36.409 40.015,36.409C40.333,36.409 40.631,36.43 40.909,36.472C41.186,36.514 41.429,36.598 41.639,36.724C41.849,36.85 42.017,37.026 42.143,37.253C42.269,37.479 42.331,37.786 42.331,38.172C42.331,38.541 42.213,38.823 41.979,39.015C41.743,39.208 41.429,39.355 41.034,39.456C40.64,39.557 40.191,39.632 39.688,39.683C39.184,39.733 38.654,39.8 38.101,39.884C37.546,39.968 37.005,40.081 36.477,40.224C35.948,40.367 35.474,40.581 35.054,40.866C34.633,41.152 34.298,41.534 34.046,42.012C33.794,42.49 33.668,43.099 33.668,43.837C33.668,44.509 33.782,45.088 34.008,45.575C34.022,45.602 34.035,45.629 34.047,45.656C35.008,45.813 35.892,46.087 36.698,46.477C36.897,46.574 37.086,46.68 37.27,46.794C37.251,46.823 37.231,46.854 37.213,46.884C37.573,46.31 37.954,45.752 38.356,45.212C38.189,45.162 38.036,45.094 37.899,45.009C37.698,44.883 37.538,44.715 37.42,44.505C37.304,44.295 37.245,44.022 37.245,43.686C37.245,43.368 37.304,43.095 37.42,42.868C37.538,42.641 37.693,42.457 37.887,42.314C38.08,42.172 38.303,42.059 38.555,41.974C38.806,41.89 39.074,41.823 39.359,41.773C39.627,41.722 39.91,41.681 40.204,41.647C40.497,41.613 40.774,41.571 41.034,41.521C41.294,41.471 41.538,41.408 41.765,41.332C41.953,41.269 42.116,41.186 42.251,41.082C43.377,40.142 44.597,39.304 45.907,38.567L45.907,37.719C45.907,36.947 45.731,36.317 45.377,35.83Z" style="fill:rgb(144,150,152);fill-rule:nonzero;"/>
            <path d="M32.974,62.434C32.974,62.332 32.975,62.231 32.975,62.13C32.712,62.432 32.383,62.703 31.988,62.944C31.37,63.32 30.498,63.507 29.37,63.507C28.914,63.507 28.471,63.467 28.042,63.386C27.613,63.306 27.238,63.164 26.915,62.963C26.593,62.762 26.338,62.495 26.151,62.159C25.962,61.824 25.869,61.387 25.869,60.85C25.869,60.34 25.962,59.904 26.151,59.54C26.338,59.179 26.586,58.884 26.895,58.656C27.203,58.428 27.559,58.248 27.962,58.113C28.365,57.979 28.793,57.87 29.25,57.79C29.679,57.709 30.129,57.643 30.599,57.589C31.068,57.536 31.511,57.468 31.927,57.388C32.343,57.307 32.733,57.206 33.095,57.085C33.212,57.047 33.322,57.002 33.427,56.953C33.731,55.178 34.187,53.467 34.797,51.821C35.464,50.02 36.288,48.345 37.269,46.794C37.087,46.68 36.896,46.574 36.698,46.477C35.812,46.049 34.832,45.76 33.759,45.612C32.685,45.465 31.625,45.39 30.578,45.39C29.398,45.39 28.244,45.505 27.117,45.733C25.99,45.961 24.969,46.344 24.057,46.88C23.144,47.416 22.393,48.128 21.802,49.014C21.212,49.899 20.876,51.014 20.796,52.356L26.513,52.356C26.62,51.228 27.002,50.423 27.659,49.94C28.318,49.456 29.196,49.215 30.297,49.215C30.806,49.215 31.284,49.248 31.726,49.316C32.169,49.383 32.558,49.517 32.894,49.718C33.229,49.919 33.497,50.202 33.699,50.564C33.9,50.926 34,51.415 34,52.034C34,52.623 33.813,53.074 33.437,53.382C33.061,53.691 32.558,53.925 31.927,54.086C31.296,54.248 30.578,54.369 29.774,54.449C28.968,54.53 28.123,54.637 27.238,54.771C26.352,54.906 25.486,55.086 24.641,55.314C23.795,55.541 23.036,55.885 22.366,56.341C21.695,56.797 21.159,57.408 20.756,58.173C20.353,58.938 20.152,59.911 20.152,61.091C20.152,62.165 20.333,63.091 20.696,63.87C21.058,64.648 21.561,65.291 22.205,65.802C22.849,66.312 23.6,66.695 24.459,66.95C25.318,67.204 26.245,67.331 27.238,67.331C28.526,67.331 29.786,67.136 31.022,66.748C31.786,66.507 32.49,66.16 33.131,65.707C33.027,64.638 32.974,63.547 32.974,62.434Z" style="fill:rgb(92,96,99);fill-rule:nonzero;"/>
        </g>
    </g>
</svg>
